<svg viewBox="0 0 200 200" xmlns="http://www.w3.org/2000/svg">
  <path fill="#9AC8D5" d="M44.7,-76.4C58.9,-69.2,71.8,-59.1,81.6,-46.6C91.4,-34.1,98.1,-19.2,95.8,-5.3C93.5,8.6,82.2,21.5,70.6,31.7C59,41.9,47.1,49.5,35.4,56.9C23.7,64.3,12.2,71.5,0.4,70.8C-11.4,70.1,-22.3,61.5,-32.8,53.4C-43.3,45.3,-53.4,37.7,-61.6,27.8C-69.8,17.9,-76.1,5.7,-75.4,-6.2C-74.7,-18.1,-67,-29.7,-57.1,-38.7C-47.2,-47.7,-35.1,-54.1,-22.8,-62.7C-10.5,-71.3,2,-82.1,14.7,-82.3C27.4,-82.5,41.4,-72.1,44.7,-76.4Z" transform="translate(100 100)" />
</svg>
