<svg viewBox="0 0 200 200" xmlns="http://www.w3.org/2000/svg">
  <path fill="#9AC8D5" d="M35.6,-59.4C46.6,-52.4,56.3,-43.8,63.9,-33.4C71.5,-23,77.1,-10.8,76.3,1.3C75.5,13.4,68.3,25.4,59.3,35.5C50.3,45.6,39.5,53.8,27.8,59.8C16.1,65.8,3.5,69.6,-8.7,68.8C-20.9,68,-32.7,62.6,-43.3,55.1C-53.9,47.6,-63.3,38,-69,26.7C-74.7,15.4,-76.7,2.4,-74.4,-9.9C-72.1,-22.2,-65.5,-33.8,-56.3,-43.1C-47.1,-52.4,-35.3,-59.4,-23.6,-64.1C-11.9,-68.8,-0.3,-71.2,10.6,-70.2L35.6,-59.4Z" transform="translate(100 100)" />
</svg>
