<svg viewBox="0 0 200 200" xmlns="http://www.w3.org/2000/svg">
  <path fill="#CD8973" d="M38.1,-64.6C49.9,-59.2,60.4,-51.7,69.1,-42.2C77.8,-32.7,84.7,-21.2,85.1,-9.5C85.5,2.2,79.4,14.1,72,24.3C64.6,34.5,56,43,46.7,50.1C37.4,57.2,27.4,62.9,16.8,66.3C6.2,69.7,-5,70.8,-15.5,68.2C-26,65.6,-35.8,59.3,-44.6,51.8C-53.4,44.3,-61.2,35.6,-66.9,25.5C-72.6,15.4,-76.2,3.9,-74.6,-6.9C-73,-17.7,-66.2,-27.8,-57.6,-36.3C-49,-44.8,-38.6,-51.7,-28.1,-58C-17.6,-64.3,-7,-70,3.6,-76.2C14.2,-82.4,26.3,-70,38.1,-64.6Z" transform="translate(100 100)" />
</svg>
