<svg viewBox="0 0 200 200" xmlns="http://www.w3.org/2000/svg">
  <path fill="#9AC8D5" d="M45.7,-76.3C58.9,-69.3,69.1,-55.9,76.6,-41.8C84.1,-27.7,88.9,-12.9,85.9,0.3C82.9,13.5,72.1,25.1,62.1,35.4C52.1,45.7,42.9,54.7,32.3,61.7C21.7,68.7,9.7,73.7,-1.5,76.3C-12.7,78.9,-23,79.1,-32.8,74.5C-42.6,69.9,-51.9,60.5,-59.8,50.2C-67.7,39.9,-74.2,28.7,-76.8,16.4C-79.4,4.1,-78.1,-9.3,-72.6,-20.9C-67.1,-32.5,-57.4,-42.3,-46.8,-50.2C-36.2,-58.1,-24.7,-64.1,-12.9,-66.3C-1.1,-68.5,12.5,-66.9,32.5,-83.3L45.7,-76.3Z" transform="translate(100 100)" />
</svg>
