<svg viewBox="0 0 200 200" xmlns="http://www.w3.org/2000/svg">
  <path fill="#ECD078" d="M44.5,-73.2C56.3,-64.8,63.8,-50.2,69.5,-36.2C75.2,-22.2,79.1,-8.8,77.9,4.1C76.8,17,70.5,29.3,62.2,39.6C53.9,49.9,43.5,58.1,32.2,63.9C20.8,69.7,8.4,73, -3.2,78.6C-14.8,84.1,-25.6,91.8,-35.1,89.2C-44.6,86.6,-52.7,73.6,-59.6,61.9C-66.5,50.2,-72.1,39.7,-75.4,28.2C-78.7,16.7,-79.7,4.2,-77.2,-7.3C-74.8,-18.8,-68.9,-29.3,-60.8,-37.9C-52.7,-46.5,-42.4,-53.2,-31.7,-62.3C-21,-71.4,-9.9,-82.9,2.8,-87.7C15.5,-92.5,32.7,-90.6,44.5,-73.2Z" transform="translate(100 100)" />
</svg>
