<svg viewBox="0 0 200 200" xmlns="http://www.w3.org/2000/svg">
  <path fill="#ECD078" d="M36.2,-61.7C47.2,-56.3,56.7,-47.1,64.2,-36.1C71.7,-25.1,77.2,-12.3,76.5,0.2C75.8,12.7,68.9,24.9,59.8,34.5C50.7,44.1,39.4,51.1,27.8,56.8C16.2,62.5,4.3,66.9,-7.1,66.3C-18.5,65.7,-29.4,60.1,-39.7,53.2C-50,46.3,-59.7,38.1,-66.4,27.8C-73.1,17.5,-76.8,5.1,-75.2,-6.5C-73.6,-18.1,-66.7,-28.9,-57.8,-37.8C-48.9,-46.7,-38,-53.7,-27.1,-59.2C-16.2,-64.7,-5.3,-68.7,4.8,-76.3L36.2,-61.7Z" transform="translate(100 100)" />
</svg>
