<svg viewBox="0 0 200 200" xmlns="http://www.w3.org/2000/svg">
  <path fill="#CD8973" d="M44.3,-74.6C56.3,-69.3,64.2,-55.9,71.2,-42.6C78.2,-29.3,84.4,-16.1,83.8,-3.1C83.2,9.9,75.8,22.7,67.3,34.4C58.8,46.1,49.2,56.7,37.8,63.1C26.4,69.5,13.2,71.7,-0.7,72.9C-14.6,74.1,-29.2,74.3,-41.8,68.7C-54.4,63.1,-65,51.7,-72.1,39.1C-79.2,26.5,-82.8,12.7,-80.6,0.3C-78.4,-12.1,-70.4,-23.1,-61.6,-32.8C-52.8,-42.5,-43.2,-50.9,-32.8,-57.1C-22.4,-63.3,-11.2,-67.3,2.4,-71.4C16,-75.5,32.3,-79.9,44.3,-74.6Z" transform="translate(100 100)" />
</svg>
