<svg viewBox="0 0 200 200" xmlns="http://www.w3.org/2000/svg">
  <path fill="#6B9080" d="M43.6,-74.3C56.3,-68.2,66.6,-56.9,74.5,-44.2C82.4,-31.5,87.9,-17.4,87.3,-3.6C86.7,10.2,80,23.7,71.7,35.8C63.4,47.9,53.5,58.6,42,65.3C30.5,72,17.4,74.7,4.8,73.1C-7.8,71.5,-19.9,65.6,-31,58.8C-42.1,52,-52.2,44.3,-60.6,34.4C-69,24.5,-75.7,12.4,-77.2,-0.9C-78.7,-14.2,-75,-28.7,-66.8,-40.4C-58.6,-52.1,-45.9,-61,-32.8,-66.9C-19.7,-72.8,-6.2,-75.7,7.1,-87.9L20.4,-100.1L43.6,-74.3Z" transform="translate(100 100)" />
</svg>
