<svg viewBox="0 0 200 200" xmlns="http://www.w3.org/2000/svg">
  <path fill="#ECD078" d="M32.8,-57.4C44.4,-51.7,56.9,-47.3,66.1,-39.2C75.3,-31.1,81.2,-19.3,82.8,-6.8C84.4,5.7,81.7,18.9,75.1,30.7C68.5,42.5,58,52.9,46.3,61.4C34.6,69.9,21.7,76.5,8.8,76.4C-4.1,76.3,-17,69.5,-27.9,62.2C-38.8,54.9,-47.7,47.1,-55.6,37.8C-63.5,28.5,-70.4,17.7,-72.4,5.9C-74.4,-5.9,-71.5,-18.7,-65.4,-29.9C-59.3,-41.1,-50,-50.7,-39.6,-57.1C-29.2,-63.5,-17.7,-66.7,-5.7,-66.6C6.3,-66.5,12.6,-63.1,21.2,-63.2L32.8,-57.4Z" transform="translate(100 100)" />
</svg>
