<svg viewBox="0 0 200 200" xmlns="http://www.w3.org/2000/svg">
  <path fill="#9AC8D5" d="M41.5,-73.2C54.1,-64.8,65,-54.3,73.5,-42.1C82,-29.9,88.1,-16,86.6,-2.4C85.1,11.2,76,24.4,66.4,36.4C56.8,48.4,46.7,59.1,34.8,65.8C22.9,72.5,9.2,75.2,-3.8,81.8C-16.8,88.4,-29.1,98.9,-40.4,98.1C-51.7,97.3,-62,85.2,-70.6,72.3C-79.1,59.4,-85.9,45.7,-88.4,31.5C-90.9,17.3,-89.1,2.6,-83.9,-9.8C-78.7,-22.2,-70.1,-32.3,-59.9,-40.7C-49.7,-49.1,-38,-55.8,-26.6,-63.4C-15.2,-71,-4.2,-79.5,8.1,-93.6L20.4,-107.6L41.5,-73.2Z" transform="translate(100 100)" />
</svg>
