<svg viewBox="0 0 200 200" xmlns="http://www.w3.org/2000/svg">
  <path fill="#CD8973" d="M37.8,-66.2C49.6,-58.5,60.2,-49.6,68.9,-38.9C77.6,-28.2,84.4,-15.8,83.9,-3.6C83.4,8.6,75.6,20.6,67.6,32.3C59.6,44,51.4,55.4,40.7,62.1C30,68.8,16.8,70.8,4,69.5C-8.8,68.2,-21.2,63.6,-32.8,57.5C-44.4,51.4,-55.2,43.8,-63.7,33.5C-72.2,23.2,-78.4,10.2,-78.9,-3.1C-79.4,-16.4,-74.2,-30,-65.4,-40.8C-56.6,-51.6,-44.2,-59.6,-32.1,-66.8C-20,-74,-8.2,-80.4,2.3,-84.4L12.8,-88.4L37.8,-66.2Z" transform="translate(100 100)" />
</svg>
