<svg viewBox="0 0 200 200" xmlns="http://www.w3.org/2000/svg">
  <path fill="#CD8973" d="M39.6,-66.6C51.2,-58.8,60.8,-48.6,68.9,-37.4C77,-26.2,83.6,-14,83.1,-2.2C82.6,9.6,75,21,67.2,32.7C59.4,44.4,51.4,56.3,40.8,63.6C30.2,70.9,17,73.6,2.9,74.8C-11.2,76,-26.2,75.7,-39.3,70.6C-52.4,65.5,-63.6,55.6,-70.8,43.5C-78,31.4,-81.2,17.1,-79.8,3.7C-78.4,-9.7,-72.4,-22.2,-64,-32.8C-55.6,-43.4,-44.8,-52.1,-33.4,-59.7C-22,-67.3,-10,-73.8,1.2,-78.9C12.4,-84,28,-74.4,39.6,-66.6Z" transform="translate(100 100)" />
</svg>
